<svg width="850" height="99" viewBox="0 0 850 99" fill="none" xmlns="http://www.w3.org/2000/svg">
<path d="M27.16 97.024C22.552 97.024 18.1573 96.3413 13.976 94.976C9.79467 93.5253 6.552 91.0933 4.248 87.68C1.944 84.352 0.792 80.5973 0.792 76.416C0.792 73.7707 1.304 71.2533 2.328 68.864C3.352 66.4747 4.84533 64.4693 6.808 62.848C7.74667 62.08 8.77067 61.5253 9.88 61.184C10.9893 60.8427 12.0987 60.672 13.208 60.672C15.3413 60.672 17.2613 61.2693 18.968 62.464C16.92 64.6827 15.4267 67.2427 14.488 70.144C13.6347 72.96 13.208 75.52 13.208 77.824C13.208 81.5787 14.0613 84.6507 15.768 87.04C17.4747 89.344 19.736 91.008 22.552 92.032C25.368 92.9707 28.3973 93.3547 31.64 93.184C36.3333 93.0133 40.472 91.3493 44.056 88.192C47.64 84.9493 50.328 80.8533 52.12 75.904C53.4853 72.1493 54.168 68.5653 54.168 65.152C54.168 60.6293 53.144 56.6613 51.096 53.248C49.048 49.8347 46.4027 47.1467 43.16 45.184C39.4907 42.88 35.1387 41.728 30.104 41.728C26.8613 41.728 23.704 42.24 20.632 43.264C18.7547 43.9467 17.2613 44.288 16.152 44.288C15.0427 44.288 14.488 43.8187 14.488 42.88C14.488 42.112 14.744 41.1733 15.256 40.064C16.792 36.3093 18.5413 32.256 20.504 27.904C22.4667 23.552 24.3867 19.3707 26.264 15.36C28.1413 11.3493 29.6773 8.02133 30.872 5.376H55.192C58.0933 5.376 60.6533 5.29066 62.872 5.12C65.176 4.94933 67.1387 4.82133 68.76 4.73599C70.4667 4.73599 71.7893 4.86399 72.728 5.12C73.6667 5.376 74.3067 5.93066 74.648 6.784C74.7333 7.12533 74.776 7.46666 74.776 7.808C74.8613 8.064 74.904 8.40533 74.904 8.83199C74.904 10.1973 74.6053 11.8187 74.008 13.696C73.496 15.488 72.856 17.2373 72.088 18.944L68.504 28.288L65.944 28.16L66.584 25.984C66.84 25.3013 67.0107 24.6187 67.096 23.936C67.2667 23.168 67.352 22.6133 67.352 22.272C67.2667 19.712 66.4133 17.8347 64.792 16.64C63.256 15.4453 61.1653 14.6773 58.52 14.336C55.96 13.9093 52.9307 13.696 49.432 13.696H34.072C34.072 13.696 33.6453 14.6347 32.792 16.512C31.9387 18.3893 30.872 20.6933 29.592 23.424C28.312 26.1547 27.032 28.928 25.752 31.744C24.472 34.56 23.448 36.9493 22.68 38.912C24.3013 38.4 25.5387 38.016 26.392 37.76C27.2453 37.504 28.0987 37.2907 28.952 37.12C32.024 36.608 34.9253 36.352 37.656 36.352C44.4827 36.352 50.3707 37.632 55.32 40.192C60.2693 42.6667 63.9813 46.0373 66.456 50.304C69.016 54.5707 70.04 59.264 69.528 64.384C69.016 70.1867 67.3947 75.1787 64.664 79.36C62.0187 83.456 58.648 86.8267 54.552 89.472C50.5413 92.032 46.1467 93.952 41.368 95.232C36.5893 96.4267 31.8533 97.024 27.16 97.024ZM102.633 97.536C97.0863 97.536 92.5637 96.256 89.065 93.696C85.5663 91.0507 82.9637 87.552 81.257 83.2C79.6357 78.7627 78.825 73.8987 78.825 68.608C78.825 65.8773 79.0383 63.1467 79.465 60.416C79.8917 57.6 80.4463 54.8267 81.129 52.096C82.665 46.464 84.8837 41.0027 87.785 35.712C90.7717 30.336 94.3557 25.5147 98.537 21.248C102.718 16.896 107.454 13.44 112.745 10.88C118.121 8.31999 123.924 7.03999 130.153 7.03999C135.87 7.03999 140.521 8.31999 144.105 10.88C147.689 13.44 150.292 16.8533 151.913 21.12C153.62 25.3867 154.473 30.1227 154.473 35.328C154.473 40.8747 153.62 46.592 151.913 52.48C150.292 58.0267 147.945 63.488 144.873 68.864C141.886 74.24 138.26 79.104 133.993 83.456C129.812 87.7227 125.076 91.136 119.785 93.696C114.494 96.256 108.777 97.536 102.633 97.536ZM104.425 90.88C105.705 91.2213 107.113 91.392 108.649 91.392C113.001 91.392 117.054 89.8987 120.809 86.912C124.649 83.9253 128.062 80 131.049 75.136C134.121 70.1867 136.553 64.8107 138.345 59.008C140.99 50.9013 142.313 43.3067 142.313 36.224C142.313 30.336 141.289 25.2587 139.241 20.992C137.278 16.7253 134.078 14.08 129.641 13.056C128.361 12.7147 126.996 12.544 125.545 12.544C121.534 12.544 117.694 13.8667 114.025 16.512C110.441 19.1573 107.198 22.6987 104.297 27.136C101.481 31.5733 99.0917 36.5227 97.129 41.984C95.5077 46.2507 94.2703 50.6027 93.417 55.04C92.649 59.392 92.265 63.5733 92.265 67.584C92.265 73.5573 93.2463 78.6773 95.209 82.944C97.1717 87.2107 100.244 89.856 104.425 90.88ZM168.47 96.768C165.995 96.768 164.118 95.7867 162.838 93.824C162.241 92.8853 161.814 91.776 161.558 90.496C161.302 89.216 161.174 87.8933 161.174 86.528C161.174 85.1627 161.259 83.7973 161.43 82.432C161.601 80.9813 161.814 79.5733 162.07 78.208C162.497 75.9893 162.966 73.984 163.478 72.192C164.075 70.3147 164.673 68.5227 165.27 66.816V66.688C164.587 67.968 163.734 69.376 162.71 70.912C161.686 72.3627 160.961 73.4293 160.534 74.112C159.937 75.0507 159.467 75.52 159.126 75.52C158.785 75.52 158.614 75.136 158.614 74.368C158.614 72.6613 159.126 70.784 160.15 68.736C160.833 67.3707 161.771 65.6213 162.966 63.488C164.161 61.2693 165.398 58.88 166.678 56.32C167.958 53.76 169.067 51.2853 170.006 48.896H161.43C161.003 48.896 160.918 48.5547 161.174 47.872C161.43 47.1893 161.814 46.5493 162.326 45.952C162.838 45.2693 163.222 44.928 163.478 44.928H173.206C174.145 42.7093 175.211 40.32 176.406 37.76C177.686 35.2 179.094 32.8107 180.63 30.592C182.251 28.288 184.001 26.4107 185.878 24.96C187.755 23.5093 189.761 22.784 191.894 22.784C192.833 22.784 193.985 22.784 195.35 22.784C196.801 22.784 197.697 22.7413 198.038 22.656C196.246 23.8507 194.155 26.24 191.766 29.824C189.377 33.3227 186.774 38.3573 183.958 44.928H196.886C197.142 44.928 197.057 45.2693 196.63 45.952C196.203 46.5493 195.649 47.1893 194.966 47.872C194.369 48.5547 193.771 48.896 193.174 48.896H182.166C181.057 51.712 179.819 54.784 178.454 58.112C177.174 61.44 175.979 64.7253 174.87 67.968C173.846 71.1253 173.078 74.0267 172.566 76.672C172.225 78.2933 172.054 79.7867 172.054 81.152C172.054 84.3947 173.078 86.016 175.126 86.016C176.491 86.016 178.113 85.3333 179.99 83.968C181.867 82.6027 183.745 80.7253 185.622 78.336C187.329 76.1173 188.95 73.728 190.486 71.168C192.107 68.608 193.473 66.2613 194.582 64.128C194.923 63.5307 195.222 63.232 195.478 63.232C195.99 63.232 196.246 63.9147 196.246 65.28C196.246 65.9627 196.118 66.7733 195.862 67.712C195.691 68.5653 195.35 69.4187 194.838 70.272C193.643 72.32 192.235 74.5813 190.614 77.056C188.993 79.4453 187.329 81.8347 185.622 84.224C184.427 85.76 182.849 87.5093 180.886 89.472C179.009 91.4347 176.961 93.1413 174.742 94.592C172.609 96.0427 170.518 96.768 168.47 96.768ZM224.281 96.768C221.38 96.768 219.374 95.9147 218.265 94.208C217.241 92.416 216.729 90.368 216.729 88.064C216.729 85.5893 217.113 82.7307 217.881 79.488C218.734 76.16 219.758 72.7467 220.953 69.248C222.233 65.664 223.513 62.336 224.793 59.264C225.22 58.24 225.604 57.1307 225.945 55.936C226.372 54.7413 226.585 53.6747 226.585 52.736C226.585 51.0293 225.817 50.176 224.281 50.176C223.684 50.176 223.001 50.304 222.233 50.56C221.465 50.7307 220.569 51.1147 219.545 51.712C217.753 52.5653 216.046 53.76 214.425 55.296C212.804 56.7467 211.694 57.856 211.097 58.624C209.988 59.9893 208.921 61.5253 207.897 63.232C206.873 64.8533 205.977 66.5173 205.209 68.224C203.502 71.8933 202.137 75.392 201.113 78.72C200.174 81.9627 199.278 84.736 198.425 87.04C197.913 88.4907 197.401 89.984 196.889 91.52C196.377 93.056 195.908 94.5493 195.481 96H183.065C183.065 96 183.364 94.9333 183.961 92.8C184.558 90.6667 185.284 88.5333 186.137 86.4C190.062 76.2453 193.774 65.8773 197.273 55.296C200.772 44.7147 204.996 34.56 209.945 24.832C212.164 20.48 214.553 16.4693 217.113 12.8C219.758 9.13066 222.532 6.22933 225.433 4.09599C228.42 1.87733 231.534 0.767998 234.777 0.767998C237.337 0.767998 239.086 1.36533 240.025 2.56C241.049 3.66933 241.561 5.07733 241.561 6.784C241.561 8.66133 241.177 10.624 240.409 12.672C239.641 14.72 238.873 16.4693 238.105 17.92C236.569 20.992 234.564 24.448 232.089 28.288C229.614 32.128 227.012 35.712 224.281 39.04C223.684 39.808 222.66 41.0453 221.209 42.752C219.758 44.3733 218.265 46.0373 216.729 47.744C215.278 49.4507 214.126 50.7733 213.273 51.712C216.089 49.664 218.521 48.0853 220.569 46.976C222.617 45.8667 224.366 45.0987 225.817 44.672C228.292 43.9893 230.34 43.648 231.961 43.648C236.825 43.648 239.257 45.7813 239.257 50.048C239.257 51.84 238.745 53.9733 237.721 56.448C237.209 57.8133 236.484 59.648 235.545 61.952C234.606 64.256 233.625 66.7307 232.601 69.376C231.662 71.936 230.852 74.4107 230.169 76.8C229.572 79.1893 229.273 81.152 229.273 82.688C229.273 83.6267 229.401 84.48 229.657 85.248C229.998 85.9307 230.596 86.272 231.449 86.272C232.046 86.272 232.9 85.9733 234.009 85.376C236.398 84.0107 238.617 82.0907 240.665 79.616C242.798 77.1413 244.676 74.496 246.297 71.68C248.004 68.864 249.454 66.304 250.649 64C250.905 63.4027 251.204 63.104 251.545 63.104C251.972 63.104 252.185 63.8293 252.185 65.28C252.185 65.9627 252.1 66.7733 251.929 67.712C251.758 68.5653 251.417 69.4187 250.905 70.272C249.71 72.32 248.132 74.8373 246.169 77.824C244.292 80.8107 242.158 83.7547 239.769 86.656C237.38 89.472 234.862 91.8613 232.217 93.824C229.572 95.7867 226.926 96.768 224.281 96.768ZM209.561 50.816C213.828 45.7813 218.137 40.4053 222.489 34.688C226.926 28.8853 230.596 22.9973 233.497 17.024C233.668 16.5973 234.052 15.744 234.649 14.464C235.246 13.184 235.801 11.776 236.313 10.24C236.825 8.61867 237.081 7.25333 237.081 6.144C237.081 4.69333 236.526 3.96799 235.417 3.96799C234.308 3.96799 232.985 4.73599 231.449 6.272C229.998 7.808 228.505 9.856 226.969 12.416C225.006 15.6587 223.001 19.4133 220.953 23.68C218.905 27.8613 216.9 32.2987 214.937 36.992C213.06 41.6853 211.268 46.2933 209.561 50.816ZM364.093 97.024C360.85 97.024 358.376 96.1707 356.669 94.464C354.962 92.7573 353.81 90.5813 353.213 87.936C352.616 85.2907 352.232 82.56 352.061 79.744C352.061 78.1227 352.146 76.2027 352.317 73.984C352.488 71.7653 352.701 69.632 352.957 67.584C353.298 65.4507 353.554 63.872 353.725 62.848H324.413C318.952 68.5653 313.746 74.1547 308.797 79.616C303.933 84.992 299.154 90.4533 294.461 96H281.661C283.88 93.952 286.781 91.2213 290.365 87.808C294.034 84.3093 298.173 80.3413 302.781 75.904C307.389 71.4667 312.168 66.7733 317.117 61.824C322.152 56.7893 327.186 51.7547 332.221 46.72C337.256 41.6 341.992 36.6933 346.429 32C350.952 27.2213 354.962 22.912 358.461 19.072C360.168 17.1947 361.746 15.3173 363.197 13.44C364.733 11.4773 366.44 9.856 368.317 8.576C370.194 7.296 372.498 6.656 375.229 6.656H384.445C382.994 8.02133 381.544 10.3253 380.093 13.568C378.642 16.8107 377.32 20.3093 376.125 24.064C375.016 27.8187 374.077 31.232 373.309 34.304C372.2 38.912 371.048 43.904 369.853 49.28C368.744 54.656 367.848 59.9893 367.165 65.28C366.482 70.5707 366.269 75.4773 366.525 80C366.61 81.6213 366.909 83.328 367.421 85.12C368.018 86.8267 368.829 88.32 369.853 89.6C370.962 90.7947 372.328 91.392 373.949 91.392C375.4 91.392 376.978 90.8373 378.685 89.728L379.453 90.88C378.344 92.5867 376.21 94.0373 373.053 95.232C369.981 96.4267 366.994 97.024 364.093 97.024ZM312.893 32.128C311.528 30.6773 310.504 29.184 309.821 27.648C309.224 26.112 308.925 24.6613 308.925 23.296C308.925 21.5893 309.266 19.968 309.949 18.432C310.717 16.8107 311.613 15.4453 312.637 14.336C314.685 12.032 317.245 10.3253 320.317 9.216C323.389 8.10666 326.632 7.424 330.045 7.168C333.544 6.82667 336.872 6.656 340.029 6.656H368.701C366.909 8.448 364.178 9.856 360.509 10.88C356.925 11.8187 353 12.544 348.733 13.056C344.466 13.4827 340.328 13.9093 336.317 14.336C332.392 14.6773 329.149 15.1467 326.589 15.744C322.066 16.768 318.61 18.7307 316.221 21.632C313.917 24.5333 312.808 28.032 312.893 32.128ZM330.045 56.448H354.621C355.645 50.816 356.84 45.184 358.205 39.552C359.656 33.92 360.936 28.9707 362.045 24.704C356.84 29.6533 351.506 34.816 346.045 40.192C340.669 45.4827 335.336 50.9013 330.045 56.448ZM422.15 96.768C419.249 96.768 417.243 95.9147 416.134 94.208C415.11 92.416 414.598 90.368 414.598 88.064C414.598 85.248 415.153 81.8773 416.262 77.952C417.371 73.9413 418.651 69.9307 420.102 65.92C421.638 61.824 423.003 58.1973 424.198 55.04C424.539 54.272 424.71 53.4613 424.71 52.608C424.71 51.6693 424.411 50.9867 423.814 50.56C423.217 50.1333 422.449 49.92 421.51 49.92C420.145 49.92 418.609 50.3467 416.902 51.2C414.257 52.5653 411.739 54.7413 409.35 57.728C406.961 60.7147 405.041 63.8293 403.59 67.072C401.969 70.7413 400.518 74.4107 399.238 78.08C397.958 81.7493 396.934 84.736 396.166 87.04C395.654 88.4907 395.185 89.984 394.758 91.52C394.331 93.056 393.905 94.5493 393.478 96H381.062C381.062 96 381.361 94.9333 381.958 92.8C382.47 90.6667 383.153 88.5333 384.006 86.4C385.457 82.6453 386.907 78.8907 388.358 75.136C389.894 71.3813 391.217 68.0533 392.326 65.152C392.667 64.2987 393.179 62.72 393.862 60.416C394.63 58.0267 395.313 55.552 395.91 52.992C396.593 50.432 396.934 48.3413 396.934 46.72C396.934 45.7813 396.806 45.1413 396.55 44.8C397.318 44.8 398.171 44.8 399.11 44.8C400.134 44.7147 401.073 44.672 401.926 44.672C403.121 44.672 404.23 44.7147 405.254 44.8C406.363 44.8853 407.089 45.0987 407.43 45.44C408.454 46.208 408.966 47.3173 408.966 48.768C408.966 49.792 408.753 50.816 408.326 51.84C407.985 52.864 407.729 53.7173 407.558 54.4C408.753 53.2907 409.99 52.224 411.27 51.2C412.55 50.176 414.513 48.8533 417.158 47.232C418.694 46.2933 420.614 45.5253 422.918 44.928C425.222 44.3307 427.313 44.032 429.19 44.032C434.054 44.032 436.486 46.2933 436.486 50.816C436.486 51.584 436.401 52.4373 436.23 53.376C436.145 54.3147 435.889 55.3387 435.462 56.448C435.035 57.8133 434.353 59.6907 433.414 62.08C432.475 64.4693 431.494 67.0293 430.47 69.76C429.531 72.4053 428.721 74.9227 428.038 77.312C427.355 79.7013 427.014 81.6213 427.014 83.072C427.014 85.12 427.782 86.144 429.318 86.144C430.683 86.144 432.39 85.2907 434.438 83.584C436.401 81.9627 438.107 80.2133 439.558 78.336C441.35 76.1173 442.971 73.7707 444.422 71.296C445.958 68.736 447.281 66.3893 448.39 64.256C448.817 63.5733 449.115 63.232 449.286 63.232C449.798 63.232 450.054 63.9573 450.054 65.408C450.054 66.0907 449.926 66.9013 449.67 67.84C449.499 68.6933 449.201 69.504 448.774 70.272C447.579 72.32 446.171 74.5813 444.55 77.056C442.929 79.5307 441.265 81.92 439.558 84.224C438.363 85.8453 436.785 87.6373 434.822 89.6C432.859 91.5627 430.769 93.2693 428.55 94.72C426.331 96.0853 424.198 96.768 422.15 96.768ZM471.884 34.56C469.665 33.792 468.556 32.3413 468.556 30.208C468.556 28.2453 469.324 26.24 470.86 24.192C472.481 22.0587 474.231 20.6933 476.108 20.096C476.535 19.9253 476.876 19.84 477.132 19.84C477.473 19.84 477.815 19.84 478.156 19.84C479.607 19.84 480.801 20.2667 481.74 21.12C482.679 21.9733 483.148 22.9547 483.148 24.064C483.148 25.6 482.337 26.88 480.716 27.904C479.436 27.7333 478.199 28.032 477.004 28.8C475.809 29.568 474.743 30.5067 473.804 31.616C472.951 32.7253 472.311 33.7067 471.884 34.56ZM449.868 96.768C448.759 96.768 447.692 96.512 446.668 96C445.644 95.5733 444.791 94.6773 444.108 93.312C443.169 91.264 442.7 88.832 442.7 86.016C442.7 82.944 443.169 79.5307 444.108 75.776C445.047 71.936 446.284 68.0107 447.82 64C448.417 62.5493 449.185 60.7573 450.124 58.624C451.063 56.4907 452.172 54.3573 453.452 52.224C454.732 50.0907 456.183 48.3413 457.804 46.976C459.511 45.5253 461.345 44.8 463.308 44.8C464.247 44.8 465.569 44.8427 467.276 44.928C468.983 45.0133 470.22 45.0133 470.988 44.928C470.476 45.2693 469.879 45.952 469.196 46.976C468.513 48 467.873 49.0667 467.276 50.176C466.679 51.2 466.209 52.0107 465.868 52.608C463.649 57.0453 461.559 61.44 459.596 65.792C457.633 70.144 456.14 74.3253 455.116 78.336C454.945 79.0187 454.817 79.7013 454.732 80.384C454.647 81.0667 454.604 81.7067 454.604 82.304C454.604 84.7787 455.415 86.016 457.036 86.016C457.719 86.016 458.444 85.8453 459.212 85.504C460.065 85.0773 461.047 84.4373 462.156 83.584C464.119 82.048 465.825 80.2987 467.276 78.336C468.983 76.1173 470.604 73.7707 472.14 71.296C473.676 68.736 474.999 66.3893 476.108 64.256C476.535 63.5733 476.833 63.232 477.004 63.232C477.516 63.232 477.772 63.9573 477.772 65.408C477.772 66.0907 477.644 66.9013 477.388 67.84C477.217 68.6933 476.919 69.504 476.492 70.272C475.297 72.32 473.889 74.5813 472.268 77.056C470.647 79.5307 468.983 81.92 467.276 84.224C466.081 85.8453 464.503 87.6373 462.54 89.6C460.577 91.5627 458.487 93.2693 456.268 94.72C454.049 96.0853 451.916 96.768 449.868 96.768ZM477.49 96.896C475.271 96.896 473.479 95.7013 472.114 93.312C470.749 90.9227 470.237 87.7653 470.578 83.84C470.749 81.3653 471.303 78.2507 472.242 74.496C473.266 70.656 474.546 66.816 476.082 62.976C477.618 59.0507 479.239 55.7227 480.946 52.992C483.165 49.4933 485.639 47.232 488.37 46.208C491.186 45.184 494.685 44.672 498.866 44.672C499.207 44.672 499.378 44.8427 499.378 45.184C499.378 45.5253 499.122 45.952 498.61 46.464C497.415 47.488 496.007 49.3653 494.386 52.096C492.765 54.8267 491.186 57.8133 489.65 61.056C488.199 64.2987 486.919 67.2853 485.81 70.016C484.957 72.2347 484.146 74.5387 483.378 76.928C482.695 79.3173 482.354 81.4507 482.354 83.328C482.354 84.864 482.653 86.1013 483.25 87.04C483.933 87.9787 485.085 88.448 486.706 88.448C488.413 88.3627 490.29 87.1253 492.338 84.736C494.386 82.3467 496.349 79.4027 498.226 75.904C500.103 72.4053 501.639 68.992 502.834 65.664C502.663 64.7253 502.493 63.744 502.322 62.72C502.237 61.696 502.194 60.6293 502.194 59.52C502.194 57.984 502.322 56.4053 502.578 54.784C502.919 53.0773 503.389 51.4133 503.986 49.792C505.095 46.976 506.631 45.312 508.594 44.8C508.935 44.7147 509.234 44.672 509.49 44.672C509.831 44.5867 510.173 44.544 510.514 44.544C512.135 44.544 513.202 45.1413 513.714 46.336C514.311 47.4453 514.61 48.768 514.61 50.304C514.61 51.84 514.439 53.376 514.098 54.912C513.757 56.3627 513.458 57.472 513.202 58.24C512.605 59.8613 511.922 61.44 511.154 62.976C510.386 64.4267 509.618 65.8773 508.85 67.328C509.021 69.9733 509.703 72.0213 510.898 73.472C512.178 74.9227 513.671 75.648 515.378 75.648C517.511 75.648 519.645 74.7093 521.778 72.832C522.973 71.808 524.039 70.528 524.978 68.992C526.002 67.3707 526.898 65.8773 527.666 64.512C528.093 63.744 528.391 63.5733 528.562 64C528.733 64.4267 528.818 65.1093 528.818 66.048C528.818 66.816 528.733 67.6693 528.562 68.608C528.477 69.4613 528.263 70.144 527.922 70.656C526.727 72.7893 525.362 74.5813 523.826 76.032C522.29 77.3973 520.669 78.4213 518.962 79.104C517.597 79.616 516.189 79.872 514.738 79.872C512.775 79.872 510.941 79.3173 509.234 78.208C507.613 77.0133 506.333 75.2213 505.394 72.832C503.602 75.4773 501.938 77.9093 500.402 80.128C498.951 82.2613 497.842 83.7973 497.074 84.736C494.514 87.9787 491.57 90.8373 488.242 93.312C484.999 95.7013 481.415 96.896 477.49 96.896ZM548.176 94.208C544.251 96.256 540.112 97.28 535.76 97.28C532.091 97.28 528.677 96.384 525.52 94.592C522.363 92.8 520.229 89.9413 519.12 86.016C518.608 84.224 518.352 82.3467 518.352 80.384C518.352 77.1413 518.907 73.8133 520.016 70.4C521.211 66.9013 522.747 63.7013 524.624 60.8C527.525 56.2773 531.195 52.5227 535.632 49.536C540.069 46.5493 544.976 45.056 550.352 45.056C554.363 45.056 557.477 46.08 559.696 48.128C561.915 50.176 563.024 52.5653 563.024 55.296C563.024 58.5387 561.915 61.3973 559.696 63.872C557.563 66.2613 554.747 68.096 551.248 69.376C549.541 69.9733 547.707 70.4427 545.744 70.784C543.867 71.04 542.075 71.168 540.368 71.168C536.869 71.168 534.181 70.6987 532.304 69.76C530.683 73.9413 529.872 77.7813 529.872 81.28C529.872 84.4373 530.597 87.04 532.048 89.088C533.499 91.0507 535.803 92.032 538.96 92.032C541.605 92.032 544.208 91.3067 546.768 89.856C549.413 88.4053 551.845 86.6133 554.064 84.48C556.368 82.3467 558.288 80.2987 559.824 78.336C561.019 76.8853 562.043 75.52 562.896 74.24C563.749 72.96 564.645 71.5093 565.584 69.888C566.523 68.1813 567.632 66.0907 568.912 63.616C569.253 63.0187 569.552 62.72 569.808 62.72C570.32 62.72 570.576 63.4027 570.576 64.768C570.576 65.536 570.448 66.3893 570.192 67.328C570.021 68.1813 569.68 69.0773 569.168 70.016C567.973 72.1493 566.523 74.496 564.816 77.056C563.195 79.5307 561.531 81.92 559.824 84.224C558.288 86.272 556.539 88.1493 554.576 89.856C552.613 91.5627 550.48 93.0133 548.176 94.208ZM536.528 66.944C536.955 67.2 537.424 67.3707 537.936 67.456C538.448 67.5413 538.96 67.584 539.472 67.584C541.179 67.584 542.885 67.2 544.592 66.432C546.299 65.5787 547.749 64.7253 548.944 63.872C550.907 62.5067 552.571 60.8853 553.936 59.008C555.301 57.1307 556.069 54.9973 556.24 52.608C556.325 51.584 556.069 50.7307 555.472 50.048C554.96 49.28 554.021 48.896 552.656 48.896C551.973 48.896 551.12 49.024 550.096 49.28C548.731 49.6213 547.365 50.2613 546 51.2C544.635 52.1387 543.312 53.248 542.032 54.528C541.605 54.9547 540.837 55.808 539.728 57.088C538.704 58.2827 537.723 59.648 536.784 61.184C535.845 62.6347 535.376 63.9147 535.376 65.024C535.376 65.9627 535.76 66.6027 536.528 66.944ZM585.347 96.896C582.616 96.896 580.654 95.744 579.459 93.44C578.52 91.392 578.051 88.96 578.051 86.144C578.051 82.9867 578.52 79.488 579.459 75.648C580.398 71.808 581.678 67.8827 583.299 63.872C583.896 62.4213 584.664 60.5867 585.603 58.368C586.627 56.1493 587.822 53.9733 589.187 51.84C587.992 52.864 586.584 53.7173 584.963 54.4C583.342 54.9973 581.763 55.296 580.227 55.296C579.032 55.296 578.051 55.1253 577.283 54.784C576.6 56.1493 575.491 58.368 573.955 61.44C572.419 64.512 570.371 68.1387 567.811 72.32C567.555 72.7467 567.299 72.7467 567.043 72.32C566.872 71.808 566.787 71.1253 566.787 70.272C566.787 69.5893 566.872 68.864 567.043 68.096C567.214 67.328 567.47 66.6027 567.811 65.92C568.664 64.2987 569.518 62.6347 570.371 60.928C571.224 59.136 571.992 57.5573 572.675 56.192C573.358 54.8267 573.742 53.9733 573.827 53.632C572.291 52.864 571.139 51.7973 570.371 50.432C569.603 48.9813 569.219 47.5733 569.219 46.208C569.219 44.8427 569.518 43.6053 570.115 42.496C570.798 41.3867 571.779 40.5333 573.059 39.936C573.827 39.68 574.552 39.552 575.235 39.552C577.112 39.552 578.648 40.1493 579.843 41.344C579.758 41.6853 579.672 42.0693 579.587 42.496C579.587 42.8373 579.587 43.2213 579.587 43.648C579.587 46.2933 580.654 48.256 582.787 49.536C584.92 50.816 587.224 51.2853 589.699 50.944C590.894 49.2373 592.259 47.744 593.795 46.464C595.331 45.184 596.995 44.544 598.787 44.544C599.726 44.544 601.048 44.5867 602.755 44.672C604.547 44.7573 605.827 44.7573 606.595 44.672C606.083 45.0133 605.486 45.696 604.803 46.72C604.12 47.744 603.48 48.8107 602.883 49.92C602.286 51.0293 601.816 51.8827 601.475 52.48C599.171 56.9173 597.038 61.3547 595.075 65.792C593.112 70.144 591.619 74.3253 590.595 78.336C590.424 79.104 590.254 79.8293 590.083 80.512C589.998 81.1093 589.955 81.7493 589.955 82.432C589.955 84.992 590.808 86.272 592.515 86.272C593.71 86.272 595.416 85.4187 597.635 83.712C599.598 82.0907 601.347 80.2987 602.883 78.336C604.59 76.1173 606.211 73.728 607.747 71.168C609.283 68.608 610.606 66.2613 611.715 64.128C612.142 63.4453 612.44 63.104 612.611 63.104C613.123 63.104 613.379 63.872 613.379 65.408C613.379 66.0053 613.294 66.7307 613.123 67.584C612.952 68.4373 612.654 69.248 612.227 70.016C610.947 72.1493 609.496 74.496 607.875 77.056C606.254 79.5307 604.59 81.9627 602.883 84.352C601.774 85.888 600.195 87.6373 598.147 89.6C596.184 91.5627 594.051 93.2693 591.747 94.72C589.528 96.1707 587.395 96.896 585.347 96.896ZM622.846 98.56C619.945 98.56 617.214 98.176 614.654 97.408C612.094 96.64 610.003 95.4453 608.382 93.824C606.761 92.2027 605.95 90.1547 605.95 87.68C605.95 85.8027 606.505 83.968 607.614 82.176C608.809 80.384 610.473 79.488 612.606 79.488C613.545 79.488 614.398 79.7013 615.166 80.128C615.934 80.5547 616.446 81.1093 616.702 81.792C616.617 81.8773 616.403 82.176 616.062 82.688C615.721 83.1147 615.507 83.4133 615.422 83.584C614.654 85.12 614.27 86.528 614.27 87.808C614.27 89.6 614.91 91.0507 616.19 92.16C617.555 93.2693 619.305 93.824 621.438 93.824C624.254 93.7387 626.686 92.7573 628.734 90.88C630.867 88.9173 631.934 86.6133 631.934 83.968C631.934 82.432 631.593 80.9813 630.91 79.616C629.801 77.312 628.307 75.3493 626.43 73.728C624.638 72.0213 622.889 70.3147 621.182 68.608C619.561 66.9013 618.366 64.8533 617.598 62.464C617.257 61.3547 617.086 59.9893 617.086 58.368C617.086 56.7467 617.299 55.168 617.726 53.632C618.153 52.0107 618.793 50.6453 619.646 49.536C620.841 47.9147 622.633 46.4213 625.022 45.056C628.009 43.4347 631.507 42.624 635.518 42.624C638.163 42.624 640.51 42.9653 642.558 43.648C644.094 44.16 645.417 45.0133 646.526 46.208C647.721 47.3173 648.318 48.8107 648.318 50.688C648.318 52.8213 647.635 54.8693 646.27 56.832C644.99 58.7093 643.113 59.8613 640.638 60.288C639.102 60.4587 637.737 60.2027 636.542 59.52C635.347 58.752 634.921 57.344 635.262 55.296C637.566 54.784 639.23 53.8453 640.254 52.48C640.766 51.712 641.022 50.944 641.022 50.176C641.022 48.7253 640.425 47.744 639.23 47.232C638.121 46.6347 637.054 46.336 636.03 46.336C634.75 46.336 633.513 46.5067 632.318 46.848C631.209 47.104 630.185 47.5733 629.246 48.256C627.369 49.8773 626.43 51.7547 626.43 53.888C626.43 54.2293 626.473 54.6133 626.558 55.04C626.729 55.4667 626.857 55.8933 626.942 56.32C627.369 57.4293 628.009 58.4533 628.862 59.392C629.715 60.3307 630.569 61.1413 631.422 61.824C633.555 63.36 635.731 65.024 637.95 66.816C640.254 68.608 641.961 70.784 643.07 73.344C643.923 75.136 644.35 76.9707 644.35 78.848C644.35 81.408 643.71 83.7547 642.43 85.888C641.15 87.936 639.699 89.5573 638.078 90.752C640.894 89.5573 643.625 87.4667 646.27 84.48C649.001 81.408 651.347 78.3787 653.31 75.392C654.59 73.4293 655.742 71.5947 656.766 69.888C657.875 68.096 658.985 66.1333 660.094 64C660.435 63.4027 660.734 63.104 660.99 63.104C661.502 63.104 661.758 63.8293 661.758 65.28C661.758 65.8773 661.63 66.6027 661.374 67.456C661.203 68.3093 660.905 69.1627 660.478 70.016C658.942 72.576 657.491 74.9653 656.126 77.184C654.761 79.3173 653.097 81.664 651.134 84.224C647.209 89.4293 643.027 93.1413 638.59 95.36C634.153 97.4933 628.905 98.56 622.846 98.56ZM694.517 96.768C691.872 96.768 690.037 95.744 689.013 93.696C688.074 91.648 687.605 89.1307 687.605 86.144C687.605 83.4133 687.861 80.7253 688.373 78.08C688.629 76.8853 688.885 75.6907 689.141 74.496C689.482 73.216 689.866 71.8933 690.293 70.528C688.842 73.1733 687.306 75.7333 685.685 78.208C684.149 80.6827 682.57 82.8587 680.949 84.736C678.218 88.064 675.317 90.8373 672.245 93.056C669.258 95.2747 666.272 96.384 663.285 96.384C660.896 96.384 658.848 95.5307 657.141 93.824C655.52 92.032 654.709 88.96 654.709 84.608C654.709 80.1707 655.477 75.6053 657.013 70.912C658.549 66.2187 660.682 61.8667 663.413 57.856C666.229 53.76 669.514 50.4747 673.269 48C677.109 45.5253 681.29 44.288 685.813 44.288C687.264 44.288 688.842 44.5013 690.549 44.928C692.256 45.3547 693.834 46.1653 695.285 47.36C696.736 48.4693 697.717 50.048 698.229 52.096C698.314 51.9253 698.4 51.7973 698.485 51.712C698.656 51.6267 698.784 51.5413 698.869 51.456C700.064 49.5787 701.429 48 702.965 46.72C704.501 45.44 706.208 44.8 708.085 44.8C709.024 44.8 710.346 44.8427 712.053 44.928C713.76 45.0133 714.997 45.0133 715.765 44.928C715.338 45.2693 714.741 45.952 713.973 46.976C713.29 48 712.65 49.0667 712.053 50.176C711.456 51.2 710.986 52.0107 710.645 52.608C708.341 57.0453 706.25 61.44 704.373 65.792C702.496 70.144 701.045 74.3253 700.021 78.336C699.765 79.1893 699.594 80 699.509 80.768C699.424 81.4507 699.381 82.1333 699.381 82.816C699.381 85.0347 700.106 86.144 701.557 86.144C702.922 86.144 704.629 85.2907 706.677 83.584C709.664 81.1947 712.266 78.208 714.485 74.624C716.789 71.04 718.794 67.584 720.501 64.256C720.842 63.6587 721.141 63.36 721.397 63.36C721.909 63.36 722.165 64.0853 722.165 65.536C722.165 66.2187 722.037 66.9867 721.781 67.84C721.61 68.6933 721.312 69.504 720.885 70.272C719.69 72.32 718.112 74.8373 716.149 77.824C714.272 80.8107 712.138 83.7547 709.749 86.656C707.36 89.472 704.842 91.8613 702.197 93.824C699.637 95.7867 697.077 96.768 694.517 96.768ZM669.045 85.632C669.301 85.7173 669.685 85.76 670.197 85.76C671.818 85.76 673.568 85.0773 675.445 83.712C677.322 82.3467 679.2 80.5973 681.077 78.464C682.954 76.2453 684.618 74.0267 686.069 71.808C689.824 65.8347 692.597 61.3547 694.389 58.368C696.181 55.3813 697.205 53.6747 697.461 53.248C697.034 51.7973 696.266 50.7307 695.157 50.048C694.133 49.3653 692.896 49.024 691.445 49.024C689.568 49.024 687.562 49.536 685.429 50.56C683.381 51.584 681.632 52.8213 680.181 54.272C677.962 56.4907 675.829 59.3493 673.781 62.848C671.818 66.3467 670.197 69.8027 668.917 73.216C667.722 76.6293 667.125 79.488 667.125 81.792C667.125 83.9253 667.765 85.2053 669.045 85.632ZM737.097 96.896C734.366 96.896 732.404 95.744 731.209 93.44C730.27 91.392 729.801 88.96 729.801 86.144C729.801 82.9867 730.27 79.488 731.209 75.648C732.148 71.808 733.428 67.8827 735.049 63.872C735.646 62.4213 736.414 60.5867 737.353 58.368C738.377 56.1493 739.572 53.9733 740.937 51.84C739.742 52.864 738.334 53.7173 736.713 54.4C735.092 54.9973 733.513 55.296 731.977 55.296C730.782 55.296 729.801 55.1253 729.033 54.784C728.35 56.1493 727.241 58.368 725.705 61.44C724.169 64.512 722.121 68.1387 719.561 72.32C719.305 72.7467 719.049 72.7467 718.793 72.32C718.622 71.808 718.537 71.1253 718.537 70.272C718.537 69.5893 718.622 68.864 718.793 68.096C718.964 67.328 719.22 66.6027 719.561 65.92C720.414 64.2987 721.268 62.6347 722.121 60.928C722.974 59.136 723.742 57.5573 724.425 56.192C725.108 54.8267 725.492 53.9733 725.577 53.632C724.041 52.864 722.889 51.7973 722.121 50.432C721.353 48.9813 720.969 47.5733 720.969 46.208C720.969 44.8427 721.268 43.6053 721.865 42.496C722.548 41.3867 723.529 40.5333 724.809 39.936C725.577 39.68 726.302 39.552 726.985 39.552C728.862 39.552 730.398 40.1493 731.593 41.344C731.508 41.6853 731.422 42.0693 731.337 42.496C731.337 42.8373 731.337 43.2213 731.337 43.648C731.337 46.2933 732.404 48.256 734.537 49.536C736.67 50.816 738.974 51.2853 741.449 50.944C742.644 49.2373 744.009 47.744 745.545 46.464C747.081 45.184 748.745 44.544 750.537 44.544C751.476 44.544 752.798 44.5867 754.505 44.672C756.297 44.7573 757.577 44.7573 758.345 44.672C757.833 45.0133 757.236 45.696 756.553 46.72C755.87 47.744 755.23 48.8107 754.633 49.92C754.036 51.0293 753.566 51.8827 753.225 52.48C750.921 56.9173 748.788 61.3547 746.825 65.792C744.862 70.144 743.369 74.3253 742.345 78.336C742.174 79.104 742.004 79.8293 741.833 80.512C741.748 81.1093 741.705 81.7493 741.705 82.432C741.705 84.992 742.558 86.272 744.265 86.272C745.46 86.272 747.166 85.4187 749.385 83.712C751.348 82.0907 753.097 80.2987 754.633 78.336C756.34 76.1173 757.961 73.728 759.497 71.168C761.033 68.608 762.356 66.2613 763.465 64.128C763.892 63.4453 764.19 63.104 764.361 63.104C764.873 63.104 765.129 63.872 765.129 65.408C765.129 66.0053 765.044 66.7307 764.873 67.584C764.702 68.4373 764.404 69.248 763.977 70.016C762.697 72.1493 761.246 74.496 759.625 77.056C758.004 79.5307 756.34 81.9627 754.633 84.352C753.524 85.888 751.945 87.6373 749.897 89.6C747.934 91.5627 745.801 93.2693 743.497 94.72C741.278 96.1707 739.145 96.896 737.097 96.896ZM786.884 34.56C784.665 33.792 783.556 32.3413 783.556 30.208C783.556 28.2453 784.324 26.24 785.86 24.192C787.481 22.0587 789.231 20.6933 791.108 20.096C791.535 19.9253 791.876 19.84 792.132 19.84C792.473 19.84 792.815 19.84 793.156 19.84C794.607 19.84 795.801 20.2667 796.74 21.12C797.679 21.9733 798.148 22.9547 798.148 24.064C798.148 25.6 797.337 26.88 795.716 27.904C794.436 27.7333 793.199 28.032 792.004 28.8C790.809 29.568 789.743 30.5067 788.804 31.616C787.951 32.7253 787.311 33.7067 786.884 34.56ZM764.868 96.768C763.759 96.768 762.692 96.512 761.668 96C760.644 95.5733 759.791 94.6773 759.108 93.312C758.169 91.264 757.7 88.832 757.7 86.016C757.7 82.944 758.169 79.5307 759.108 75.776C760.047 71.936 761.284 68.0107 762.82 64C763.417 62.5493 764.185 60.7573 765.124 58.624C766.063 56.4907 767.172 54.3573 768.452 52.224C769.732 50.0907 771.183 48.3413 772.804 46.976C774.511 45.5253 776.345 44.8 778.308 44.8C779.247 44.8 780.569 44.8427 782.276 44.928C783.983 45.0133 785.22 45.0133 785.988 44.928C785.476 45.2693 784.879 45.952 784.196 46.976C783.513 48 782.873 49.0667 782.276 50.176C781.679 51.2 781.209 52.0107 780.868 52.608C778.649 57.0453 776.559 61.44 774.596 65.792C772.633 70.144 771.14 74.3253 770.116 78.336C769.945 79.0187 769.817 79.7013 769.732 80.384C769.647 81.0667 769.604 81.7067 769.604 82.304C769.604 84.7787 770.415 86.016 772.036 86.016C772.719 86.016 773.444 85.8453 774.212 85.504C775.065 85.0773 776.047 84.4373 777.156 83.584C779.119 82.048 780.825 80.2987 782.276 78.336C783.983 76.1173 785.604 73.7707 787.14 71.296C788.676 68.736 789.999 66.3893 791.108 64.256C791.535 63.5733 791.833 63.232 792.004 63.232C792.516 63.232 792.772 63.9573 792.772 65.408C792.772 66.0907 792.644 66.9013 792.388 67.84C792.217 68.6933 791.919 69.504 791.492 70.272C790.297 72.32 788.889 74.5813 787.268 77.056C785.647 79.5307 783.983 81.92 782.276 84.224C781.081 85.8453 779.503 87.6373 777.54 89.6C775.577 91.5627 773.487 93.2693 771.268 94.72C769.049 96.0853 766.916 96.768 764.868 96.768ZM801.194 97.024C797.269 97.024 793.855 95.7867 790.954 93.312C788.138 90.8373 786.73 86.8693 786.73 81.408C786.73 77.3973 787.455 73.216 788.906 68.864C790.357 64.512 792.405 60.4587 795.05 56.704C797.781 52.9493 801.066 49.8773 804.906 47.488C808.746 45.0987 813.055 43.904 817.834 43.904C821.759 43.904 824.789 44.672 826.922 46.208C829.141 47.6587 830.719 49.6213 831.658 52.096C832.597 54.5707 833.066 57.216 833.066 60.032C833.066 62.1653 832.81 64.3413 832.298 66.56C831.871 68.6933 831.231 70.8267 830.378 72.96C831.829 74.6667 833.663 75.52 835.882 75.52C838.271 75.52 840.49 74.624 842.538 72.832C843.733 71.808 844.799 70.528 845.738 68.992C846.762 67.3707 847.658 65.8773 848.426 64.512C848.682 64 848.981 63.744 849.322 63.744C849.749 63.744 849.962 64.3413 849.962 65.536C849.962 66.304 849.834 67.2 849.578 68.224C849.407 69.248 848.981 70.272 848.298 71.296C847.018 73.5147 845.695 75.2213 844.33 76.416C842.965 77.5253 841.429 78.4213 839.722 79.104C838.442 79.616 837.077 79.872 835.626 79.872C832.981 79.872 830.591 79.0613 828.458 77.44C827.775 78.8907 826.922 80.384 825.898 81.92C823.423 86.1013 820.223 89.6853 816.298 92.672C812.373 95.5733 807.338 97.024 801.194 97.024ZM806.058 92.16C808.021 92.16 809.898 91.52 811.69 90.24C813.567 88.8747 815.274 87.2107 816.81 85.248C818.346 83.2853 819.669 81.2373 820.778 79.104C821.973 76.9707 822.954 75.0933 823.722 73.472C820.821 70.9973 819.37 67.8827 819.37 64.128C819.37 61.6533 820.053 59.7333 821.418 58.368C822.783 57.0027 824.661 56.4053 827.05 56.576C826.965 54.6133 826.453 52.992 825.514 51.712C824.575 50.432 823.039 49.792 820.906 49.792C818.943 49.792 817.066 50.3893 815.274 51.584C813.567 52.7787 811.946 54.3147 810.41 56.192C808.959 57.984 807.637 59.8613 806.442 61.824C805.333 63.7013 804.394 65.408 803.626 66.944C802.517 69.1627 801.493 71.8507 800.554 75.008C799.615 78.1653 799.146 81.1093 799.146 83.84C799.146 86.2293 799.615 88.2347 800.554 89.856C801.578 91.392 803.413 92.16 806.058 92.16Z" fill="black"/>
</svg>
