<?xml version="1.0" encoding="utf-8"?>
<!-- Generator: Adobe Illustrator 19.2.1, SVG Export Plug-In . SVG Version: 6.00 Build 0)  -->
<svg version="1.1" id="Capa_1" xmlns="http://www.w3.org/2000/svg" xmlns:xlink="http://www.w3.org/1999/xlink" x="0px" y="0px"
	 viewBox="0 0 676.2 112.8" style="enable-background:new 0 0 676.2 112.8;" xml:space="preserve">
<g>
	<g>
		<path d="M676.2,3.3c0,1.8-151.4,3.4-338.1,3.4C151.3,6.7,0,5.2,0,3.3C0,1.5,151.3,0,338.1,0C524.8,0,676.2,1.5,676.2,3.3z"/>
	</g>
	<g>
		<g>
			<path d="M355.9,41.5c0.3-0.1,0.7,1.3,1.8,3.4c1,2,3.8,4.9,8,4.2c4-0.5,9-4.7,8.5-10.6c-0.2-6.1-6-11.4-13.9-10.8
				c-7.3,0.1-17.4,5.1-16.7,13.4c-0.2,9.2,6.5,18.1,16.7,18.6c9.9,0.8,20-6.3,28.5-14.6c4.4-4.5,8.8-9,13.3-13.6
				c4.5-5.1,12.3-9,19.3-9.6c14-2.2,29.4,2,38.6,12.9c8.8,11.2,10.7,25.5,6.3,37.7c-9.6,24.6-42.8,30-55,12.5
				c-5.9-8.2-4.2-19,0.7-24.7c4.7-6.7,13-7.2,17.7-5.7c10.4,3.3,11.8,10.4,11.4,10.2c-0.5,0.6-3-5.4-12.1-7.3
				c-4.3-0.8-10.4,0-13.6,5.3c-3.7,5-4.4,12.9,0.3,19.1c8.7,12.8,37.1,8.1,44-11.9c3.5-9.3,1.4-22.1-5.4-30.3
				c-7.2-8.4-19.9-12.1-31.9-10.2C410.2,30,403.7,42,393.9,50.6c-9.2,8.5-20.5,17.3-34.3,16.2c-13.8-0.6-23.4-14.3-22.4-25.6
				c-0.4-6.3,4.1-12.1,8.5-14.7c4.6-2.9,9.6-4.1,14.5-4.1c10-0.7,18.8,7.8,18.3,16c0.1,8.5-7.1,13.6-12.5,13.7
				c-5.9,0.4-9.1-4.2-9.7-6.5C355.5,43,355.7,41.5,355.9,41.5z"/>
		</g>
		<g>
			<path d="M319.6,42.2c0.2,0,0.4,1.4-0.3,4c-0.5,2.4-3.5,7-9.4,6.9c-5.3,0.2-12.7-4.6-13.1-13c-0.1-4,1.2-8.3,4.5-11.7
				c3.4-3.3,8.3-4.8,13.1-4.8c4.8,0,9.9,1.3,14.4,4.3c4.4,2.7,8.6,8.5,8.5,14.6c0.2,5.5-0.9,11.9-5.1,17c-4.2,5.2-10.6,7.7-17.1,8.2
				c-13.6,0.6-24.8-7.7-34.2-15.9c-10-8.4-16.7-19.5-29.3-19.3c-12-1.3-24.3,3.3-31,12c-6.3,8.6-7.5,21.4-3.7,30.5
				c8,19.4,36.3,22.7,44.3,9.6c4.4-6.3,3.2-14.1-0.7-18.9c-3.4-5.1-9.5-5.7-13.7-4.7c-9,2.3-11.2,8.3-11.8,7.7
				c-0.4,0.3,0.8-6.8,11-10.6c4.6-1.7,12.8-1.6,17.9,4.9c5.1,5.4,7.3,16,1.9,24.5c-11.3,18-44.4,14.2-55.4-9.6
				c-4.9-11.9-4-26.1,4.2-37.8c8.5-11.4,23.5-16.6,37.7-15.1c6.8,0.3,14.9,3.3,19.8,8.2c4.6,4.4,9.2,8.8,13.8,13.1
				c8.8,8,18.9,14.9,28.7,14.5c10.4-0.3,16.9-8.6,16.2-18c0.4-8.3-9.3-13.4-16.6-13.6c-7.9-0.7-13.3,5-13.2,11
				c-0.2,5.8,4.9,9.8,8.9,10.1c4.2,0.5,6.9-2.5,7.8-4.5C319,43.5,319.3,42.1,319.6,42.2z"/>
		</g>
		<polygon points="338,67.8 349.8,84.6 338.2,112.8 324.9,85 		"/>
	</g>
</g>
</svg>
